<mxfile host="app.diagrams.net" modified="2021-05-24T08:31:48.349Z" agent="5.0 (Windows NT 10.0; WOW64) AppleWebKit/537.36 (KHTML, like Gecko) SFive/73.0 Chrome/73.0.3683.104 Safari/537.36" etag="y1065Y94-0lBf1SqO1xE" version="13.7.5" type="github">
  <diagram id="C5RBs43oDa-KdzZeNtuy" name="Page-1">
    <mxGraphModel dx="2120" dy="905" grid="1" gridSize="10" guides="1" tooltips="1" connect="1" arrows="1" fold="1" page="1" pageScale="1" pageWidth="827" pageHeight="1169" math="0" shadow="0">
      <root>
        <mxCell id="WIyWlLk6GJQsqaUBKTNV-0" />
        <mxCell id="WIyWlLk6GJQsqaUBKTNV-1" parent="WIyWlLk6GJQsqaUBKTNV-0" />
        <mxCell id="OThH-fJzGORxEDhMGL2U-93" value="" style="rounded=0;whiteSpace=wrap;html=1;fillColor=#dae8fc;strokeColor=#6c8ebf;" vertex="1" parent="WIyWlLk6GJQsqaUBKTNV-1">
          <mxGeometry x="-90" y="270" width="220" height="790" as="geometry" />
        </mxCell>
        <mxCell id="OThH-fJzGORxEDhMGL2U-91" value="" style="rounded=0;whiteSpace=wrap;html=1;fillColor=#fff2cc;strokeColor=#d6b656;" vertex="1" parent="WIyWlLk6GJQsqaUBKTNV-1">
          <mxGeometry x="220" y="270" width="320" height="830" as="geometry" />
        </mxCell>
        <mxCell id="OThH-fJzGORxEDhMGL2U-29" value="" style="endArrow=none;dashed=1;html=1;" edge="1" parent="WIyWlLk6GJQsqaUBKTNV-1">
          <mxGeometry width="50" height="50" relative="1" as="geometry">
            <mxPoint x="160" y="970" as="sourcePoint" />
            <mxPoint x="160" y="360" as="targetPoint" />
          </mxGeometry>
        </mxCell>
        <mxCell id="OThH-fJzGORxEDhMGL2U-76" value="EC" style="ellipse;whiteSpace=wrap;html=1;aspect=fixed;" vertex="1" parent="WIyWlLk6GJQsqaUBKTNV-1">
          <mxGeometry x="145" y="710" width="30" height="30" as="geometry" />
        </mxCell>
        <mxCell id="OThH-fJzGORxEDhMGL2U-0" value="PcFlowPreProcessor" style="rounded=1;whiteSpace=wrap;html=1;" vertex="1" parent="WIyWlLk6GJQsqaUBKTNV-1">
          <mxGeometry x="-70" y="320" width="180" height="60" as="geometry" />
        </mxCell>
        <mxCell id="OThH-fJzGORxEDhMGL2U-1" value="Task01Processor" style="rounded=1;whiteSpace=wrap;html=1;" vertex="1" parent="WIyWlLk6GJQsqaUBKTNV-1">
          <mxGeometry x="280" y="320" width="180" height="60" as="geometry" />
        </mxCell>
        <mxCell id="OThH-fJzGORxEDhMGL2U-2" value="Task02Processor" style="rounded=1;whiteSpace=wrap;html=1;" vertex="1" parent="WIyWlLk6GJQsqaUBKTNV-1">
          <mxGeometry x="280" y="470" width="180" height="60" as="geometry" />
        </mxCell>
        <mxCell id="OThH-fJzGORxEDhMGL2U-3" value="Task03Processor" style="rounded=1;whiteSpace=wrap;html=1;" vertex="1" parent="WIyWlLk6GJQsqaUBKTNV-1">
          <mxGeometry x="280" y="695" width="180" height="60" as="geometry" />
        </mxCell>
        <mxCell id="OThH-fJzGORxEDhMGL2U-4" value="TaskNProcessor" style="rounded=1;whiteSpace=wrap;html=1;" vertex="1" parent="WIyWlLk6GJQsqaUBKTNV-1">
          <mxGeometry x="280" y="965" width="180" height="60" as="geometry" />
        </mxCell>
        <mxCell id="OThH-fJzGORxEDhMGL2U-5" value="" style="endArrow=classic;html=1;exitX=1;exitY=0.5;exitDx=0;exitDy=0;" edge="1" parent="WIyWlLk6GJQsqaUBKTNV-1" source="OThH-fJzGORxEDhMGL2U-0" target="OThH-fJzGORxEDhMGL2U-1">
          <mxGeometry width="50" height="50" relative="1" as="geometry">
            <mxPoint x="200" y="350" as="sourcePoint" />
            <mxPoint x="250" y="300" as="targetPoint" />
          </mxGeometry>
        </mxCell>
        <mxCell id="OThH-fJzGORxEDhMGL2U-6" value="" style="endArrow=classic;html=1;exitX=0.5;exitY=1;exitDx=0;exitDy=0;" edge="1" parent="WIyWlLk6GJQsqaUBKTNV-1" source="OThH-fJzGORxEDhMGL2U-1" target="OThH-fJzGORxEDhMGL2U-2">
          <mxGeometry width="50" height="50" relative="1" as="geometry">
            <mxPoint x="390" y="560" as="sourcePoint" />
            <mxPoint x="440" y="510" as="targetPoint" />
          </mxGeometry>
        </mxCell>
        <mxCell id="OThH-fJzGORxEDhMGL2U-7" value="" style="endArrow=classic;html=1;exitX=0.5;exitY=1;exitDx=0;exitDy=0;entryX=0.5;entryY=0;entryDx=0;entryDy=0;" edge="1" parent="WIyWlLk6GJQsqaUBKTNV-1" target="OThH-fJzGORxEDhMGL2U-54">
          <mxGeometry width="50" height="50" relative="1" as="geometry">
            <mxPoint x="369.5" y="530" as="sourcePoint" />
            <mxPoint x="370" y="560" as="targetPoint" />
          </mxGeometry>
        </mxCell>
        <mxCell id="OThH-fJzGORxEDhMGL2U-8" value="" style="endArrow=classic;html=1;exitX=0.5;exitY=1;exitDx=0;exitDy=0;" edge="1" parent="WIyWlLk6GJQsqaUBKTNV-1">
          <mxGeometry width="50" height="50" relative="1" as="geometry">
            <mxPoint x="369.5" y="755" as="sourcePoint" />
            <mxPoint x="369.5" y="845" as="targetPoint" />
          </mxGeometry>
        </mxCell>
        <mxCell id="OThH-fJzGORxEDhMGL2U-9" value="........" style="text;html=1;align=center;verticalAlign=middle;resizable=0;points=[];autosize=1;" vertex="1" parent="WIyWlLk6GJQsqaUBKTNV-1">
          <mxGeometry x="350" y="850" width="40" height="20" as="geometry" />
        </mxCell>
        <mxCell id="OThH-fJzGORxEDhMGL2U-10" value="" style="endArrow=classic;html=1;exitX=0.5;exitY=1;exitDx=0;exitDy=0;" edge="1" parent="WIyWlLk6GJQsqaUBKTNV-1">
          <mxGeometry width="50" height="50" relative="1" as="geometry">
            <mxPoint x="369.5" y="875" as="sourcePoint" />
            <mxPoint x="369.5" y="965" as="targetPoint" />
          </mxGeometry>
        </mxCell>
        <mxCell id="OThH-fJzGORxEDhMGL2U-11" value="PcFlowPosProcessor" style="rounded=1;whiteSpace=wrap;html=1;" vertex="1" parent="WIyWlLk6GJQsqaUBKTNV-1">
          <mxGeometry x="-70" y="965" width="180" height="60" as="geometry" />
        </mxCell>
        <mxCell id="OThH-fJzGORxEDhMGL2U-12" value="" style="endArrow=classic;html=1;exitX=0.5;exitY=1;exitDx=0;exitDy=0;entryX=1;entryY=0.5;entryDx=0;entryDy=0;" edge="1" parent="WIyWlLk6GJQsqaUBKTNV-1" target="OThH-fJzGORxEDhMGL2U-11">
          <mxGeometry width="50" height="50" relative="1" as="geometry">
            <mxPoint x="279" y="995" as="sourcePoint" />
            <mxPoint x="279" y="1085" as="targetPoint" />
          </mxGeometry>
        </mxCell>
        <mxCell id="OThH-fJzGORxEDhMGL2U-13" value="" style="ellipse;whiteSpace=wrap;html=1;aspect=fixed;" vertex="1" parent="WIyWlLk6GJQsqaUBKTNV-1">
          <mxGeometry x="-250" y="325" width="50" height="50" as="geometry" />
        </mxCell>
        <mxCell id="OThH-fJzGORxEDhMGL2U-14" value="" style="ellipse;whiteSpace=wrap;html=1;aspect=fixed;" vertex="1" parent="WIyWlLk6GJQsqaUBKTNV-1">
          <mxGeometry x="-240" y="970" width="50" height="50" as="geometry" />
        </mxCell>
        <mxCell id="OThH-fJzGORxEDhMGL2U-15" value="" style="endArrow=classic;html=1;entryX=0;entryY=0.5;entryDx=0;entryDy=0;" edge="1" parent="WIyWlLk6GJQsqaUBKTNV-1" target="OThH-fJzGORxEDhMGL2U-0">
          <mxGeometry width="50" height="50" relative="1" as="geometry">
            <mxPoint x="-200" y="350" as="sourcePoint" />
            <mxPoint x="-150" y="300" as="targetPoint" />
          </mxGeometry>
        </mxCell>
        <mxCell id="OThH-fJzGORxEDhMGL2U-16" value="" style="endArrow=classic;html=1;entryX=1;entryY=0.5;entryDx=0;entryDy=0;exitX=0;exitY=0.5;exitDx=0;exitDy=0;" edge="1" parent="WIyWlLk6GJQsqaUBKTNV-1" source="OThH-fJzGORxEDhMGL2U-11" target="OThH-fJzGORxEDhMGL2U-14">
          <mxGeometry width="50" height="50" relative="1" as="geometry">
            <mxPoint x="-80" y="995" as="sourcePoint" />
            <mxPoint x="-10" y="945" as="targetPoint" />
          </mxGeometry>
        </mxCell>
        <mxCell id="OThH-fJzGORxEDhMGL2U-17" value="Start" style="text;html=1;align=center;verticalAlign=middle;resizable=0;points=[];autosize=1;" vertex="1" parent="WIyWlLk6GJQsqaUBKTNV-1">
          <mxGeometry x="-245" y="300" width="40" height="20" as="geometry" />
        </mxCell>
        <mxCell id="OThH-fJzGORxEDhMGL2U-18" value="End" style="text;html=1;align=center;verticalAlign=middle;resizable=0;points=[];autosize=1;" vertex="1" parent="WIyWlLk6GJQsqaUBKTNV-1">
          <mxGeometry x="-235" y="945" width="40" height="20" as="geometry" />
        </mxCell>
        <mxCell id="OThH-fJzGORxEDhMGL2U-19" value="PcFlowStateProcessor" style="rounded=1;whiteSpace=wrap;html=1;" vertex="1" parent="WIyWlLk6GJQsqaUBKTNV-1">
          <mxGeometry x="-70" y="460" width="180" height="80" as="geometry" />
        </mxCell>
        <mxCell id="OThH-fJzGORxEDhMGL2U-20" value="TaskFlowStateProcessor" style="rounded=1;whiteSpace=wrap;html=1;" vertex="1" parent="WIyWlLk6GJQsqaUBKTNV-1">
          <mxGeometry x="-70" y="690" width="180" height="70" as="geometry" />
        </mxCell>
        <mxCell id="OThH-fJzGORxEDhMGL2U-25" value="" style="endArrow=none;dashed=1;html=1;" edge="1" parent="WIyWlLk6GJQsqaUBKTNV-1" source="OThH-fJzGORxEDhMGL2U-79">
          <mxGeometry width="50" height="50" relative="1" as="geometry">
            <mxPoint x="-120" y="970" as="sourcePoint" />
            <mxPoint x="-120" y="360" as="targetPoint" />
          </mxGeometry>
        </mxCell>
        <mxCell id="OThH-fJzGORxEDhMGL2U-26" value="" style="endArrow=none;dashed=1;html=1;" edge="1" parent="WIyWlLk6GJQsqaUBKTNV-1">
          <mxGeometry width="50" height="50" relative="1" as="geometry">
            <mxPoint x="-120" y="360" as="sourcePoint" />
            <mxPoint x="-70" y="360" as="targetPoint" />
          </mxGeometry>
        </mxCell>
        <mxCell id="OThH-fJzGORxEDhMGL2U-27" value="" style="endArrow=none;dashed=1;html=1;" edge="1" parent="WIyWlLk6GJQsqaUBKTNV-1">
          <mxGeometry width="50" height="50" relative="1" as="geometry">
            <mxPoint x="-120" y="975" as="sourcePoint" />
            <mxPoint x="-70" y="975" as="targetPoint" />
          </mxGeometry>
        </mxCell>
        <mxCell id="OThH-fJzGORxEDhMGL2U-28" value="" style="endArrow=none;dashed=1;html=1;" edge="1" parent="WIyWlLk6GJQsqaUBKTNV-1">
          <mxGeometry width="50" height="50" relative="1" as="geometry">
            <mxPoint x="-120" y="499.5" as="sourcePoint" />
            <mxPoint x="-70" y="499.5" as="targetPoint" />
          </mxGeometry>
        </mxCell>
        <mxCell id="OThH-fJzGORxEDhMGL2U-30" value="" style="endArrow=none;dashed=1;html=1;entryX=-0.022;entryY=0.15;entryDx=0;entryDy=0;entryPerimeter=0;" edge="1" parent="WIyWlLk6GJQsqaUBKTNV-1" target="OThH-fJzGORxEDhMGL2U-4">
          <mxGeometry width="50" height="50" relative="1" as="geometry">
            <mxPoint x="160" y="975" as="sourcePoint" />
            <mxPoint x="210" y="975" as="targetPoint" />
          </mxGeometry>
        </mxCell>
        <mxCell id="OThH-fJzGORxEDhMGL2U-31" value="" style="endArrow=none;dashed=1;html=1;" edge="1" parent="WIyWlLk6GJQsqaUBKTNV-1">
          <mxGeometry width="50" height="50" relative="1" as="geometry">
            <mxPoint x="180" y="725" as="sourcePoint" />
            <mxPoint x="276" y="725" as="targetPoint" />
          </mxGeometry>
        </mxCell>
        <mxCell id="OThH-fJzGORxEDhMGL2U-32" value="" style="endArrow=none;dashed=1;html=1;" edge="1" parent="WIyWlLk6GJQsqaUBKTNV-1">
          <mxGeometry width="50" height="50" relative="1" as="geometry">
            <mxPoint x="160" y="360.5" as="sourcePoint" />
            <mxPoint x="276" y="360" as="targetPoint" />
          </mxGeometry>
        </mxCell>
        <mxCell id="OThH-fJzGORxEDhMGL2U-33" value="" style="endArrow=none;dashed=1;html=1;" edge="1" parent="WIyWlLk6GJQsqaUBKTNV-1">
          <mxGeometry width="50" height="50" relative="1" as="geometry">
            <mxPoint x="160" y="500" as="sourcePoint" />
            <mxPoint x="276" y="499.5" as="targetPoint" />
          </mxGeometry>
        </mxCell>
        <mxCell id="OThH-fJzGORxEDhMGL2U-34" value="" style="endArrow=classic;html=1;entryX=1;entryY=0.5;entryDx=0;entryDy=0;" edge="1" parent="WIyWlLk6GJQsqaUBKTNV-1" target="OThH-fJzGORxEDhMGL2U-20">
          <mxGeometry width="50" height="50" relative="1" as="geometry">
            <mxPoint x="120" y="725" as="sourcePoint" />
            <mxPoint x="120" y="745" as="targetPoint" />
          </mxGeometry>
        </mxCell>
        <mxCell id="OThH-fJzGORxEDhMGL2U-35" value="" style="endArrow=classic;html=1;" edge="1" parent="WIyWlLk6GJQsqaUBKTNV-1">
          <mxGeometry width="50" height="50" relative="1" as="geometry">
            <mxPoint x="170" y="500" as="sourcePoint" />
            <mxPoint x="160" y="500" as="targetPoint" />
          </mxGeometry>
        </mxCell>
        <mxCell id="OThH-fJzGORxEDhMGL2U-36" value="" style="endArrow=classic;html=1;" edge="1" parent="WIyWlLk6GJQsqaUBKTNV-1">
          <mxGeometry width="50" height="50" relative="1" as="geometry">
            <mxPoint x="170" y="360" as="sourcePoint" />
            <mxPoint x="160" y="360" as="targetPoint" />
          </mxGeometry>
        </mxCell>
        <mxCell id="OThH-fJzGORxEDhMGL2U-38" value="" style="endArrow=classic;html=1;" edge="1" parent="WIyWlLk6GJQsqaUBKTNV-1">
          <mxGeometry width="50" height="50" relative="1" as="geometry">
            <mxPoint x="170" y="975" as="sourcePoint" />
            <mxPoint x="160" y="975" as="targetPoint" />
          </mxGeometry>
        </mxCell>
        <mxCell id="OThH-fJzGORxEDhMGL2U-39" value="" style="endArrow=classic;html=1;" edge="1" parent="WIyWlLk6GJQsqaUBKTNV-1">
          <mxGeometry width="50" height="50" relative="1" as="geometry">
            <mxPoint x="185" y="725" as="sourcePoint" />
            <mxPoint x="175" y="725" as="targetPoint" />
          </mxGeometry>
        </mxCell>
        <mxCell id="OThH-fJzGORxEDhMGL2U-40" value="" style="endArrow=classic;html=1;entryX=0;entryY=0.5;entryDx=0;entryDy=0;" edge="1" parent="WIyWlLk6GJQsqaUBKTNV-1" target="OThH-fJzGORxEDhMGL2U-19">
          <mxGeometry width="50" height="50" relative="1" as="geometry">
            <mxPoint x="-80" y="500" as="sourcePoint" />
            <mxPoint x="170" y="510" as="targetPoint" />
          </mxGeometry>
        </mxCell>
        <mxCell id="OThH-fJzGORxEDhMGL2U-41" value="" style="endArrow=classic;html=1;" edge="1" parent="WIyWlLk6GJQsqaUBKTNV-1">
          <mxGeometry width="50" height="50" relative="1" as="geometry">
            <mxPoint x="-110" y="975" as="sourcePoint" />
            <mxPoint x="-120" y="975" as="targetPoint" />
          </mxGeometry>
        </mxCell>
        <mxCell id="OThH-fJzGORxEDhMGL2U-42" value="" style="endArrow=classic;html=1;" edge="1" parent="WIyWlLk6GJQsqaUBKTNV-1">
          <mxGeometry width="50" height="50" relative="1" as="geometry">
            <mxPoint x="-110" y="360" as="sourcePoint" />
            <mxPoint x="-120" y="360" as="targetPoint" />
          </mxGeometry>
        </mxCell>
        <mxCell id="OThH-fJzGORxEDhMGL2U-43" value="" style="endArrow=none;dashed=1;html=1;exitX=1;exitY=0.5;exitDx=0;exitDy=0;" edge="1" parent="WIyWlLk6GJQsqaUBKTNV-1">
          <mxGeometry width="50" height="50" relative="1" as="geometry">
            <mxPoint x="160" y="864" as="sourcePoint" />
            <mxPoint x="280" y="864" as="targetPoint" />
          </mxGeometry>
        </mxCell>
        <mxCell id="OThH-fJzGORxEDhMGL2U-44" value="" style="endArrow=classic;html=1;" edge="1" parent="WIyWlLk6GJQsqaUBKTNV-1">
          <mxGeometry width="50" height="50" relative="1" as="geometry">
            <mxPoint x="170" y="864" as="sourcePoint" />
            <mxPoint x="160" y="864" as="targetPoint" />
          </mxGeometry>
        </mxCell>
        <mxCell id="OThH-fJzGORxEDhMGL2U-46" value="" style="endArrow=none;dashed=1;html=1;" edge="1" parent="WIyWlLk6GJQsqaUBKTNV-1">
          <mxGeometry width="50" height="50" relative="1" as="geometry">
            <mxPoint x="460" y="162" as="sourcePoint" />
            <mxPoint x="540" y="162" as="targetPoint" />
          </mxGeometry>
        </mxCell>
        <mxCell id="OThH-fJzGORxEDhMGL2U-47" value="async" style="text;html=1;align=center;verticalAlign=middle;resizable=0;points=[];autosize=1;" vertex="1" parent="WIyWlLk6GJQsqaUBKTNV-1">
          <mxGeometry x="403" y="151" width="50" height="20" as="geometry" />
        </mxCell>
        <mxCell id="OThH-fJzGORxEDhMGL2U-50" value="" style="endArrow=none;html=1;" edge="1" parent="WIyWlLk6GJQsqaUBKTNV-1">
          <mxGeometry width="50" height="50" relative="1" as="geometry">
            <mxPoint x="460" y="131" as="sourcePoint" />
            <mxPoint x="540" y="131" as="targetPoint" />
          </mxGeometry>
        </mxCell>
        <mxCell id="OThH-fJzGORxEDhMGL2U-51" value="sync" style="text;html=1;align=center;verticalAlign=middle;resizable=0;points=[];autosize=1;" vertex="1" parent="WIyWlLk6GJQsqaUBKTNV-1">
          <mxGeometry x="408" y="121" width="40" height="20" as="geometry" />
        </mxCell>
        <mxCell id="OThH-fJzGORxEDhMGL2U-52" value="" style="strokeWidth=2;html=1;shape=mxgraph.flowchart.database;whiteSpace=wrap;" vertex="1" parent="WIyWlLk6GJQsqaUBKTNV-1">
          <mxGeometry y="470" width="30" height="20" as="geometry" />
        </mxCell>
        <mxCell id="OThH-fJzGORxEDhMGL2U-53" value="" style="strokeWidth=2;html=1;shape=mxgraph.flowchart.database;whiteSpace=wrap;" vertex="1" parent="WIyWlLk6GJQsqaUBKTNV-1">
          <mxGeometry y="695" width="30" height="20" as="geometry" />
        </mxCell>
        <mxCell id="OThH-fJzGORxEDhMGL2U-54" value="onComplete" style="rhombus;whiteSpace=wrap;html=1;" vertex="1" parent="WIyWlLk6GJQsqaUBKTNV-1">
          <mxGeometry x="305" y="600" width="130" height="40" as="geometry" />
        </mxCell>
        <mxCell id="OThH-fJzGORxEDhMGL2U-56" value="" style="endArrow=classic;html=1;exitX=0.5;exitY=1;exitDx=0;exitDy=0;entryX=0.5;entryY=0;entryDx=0;entryDy=0;" edge="1" parent="WIyWlLk6GJQsqaUBKTNV-1" source="OThH-fJzGORxEDhMGL2U-54" target="OThH-fJzGORxEDhMGL2U-3">
          <mxGeometry width="50" height="50" relative="1" as="geometry">
            <mxPoint x="379.5" y="540" as="sourcePoint" />
            <mxPoint x="380" y="570" as="targetPoint" />
          </mxGeometry>
        </mxCell>
        <mxCell id="OThH-fJzGORxEDhMGL2U-57" value="Yes" style="text;html=1;align=center;verticalAlign=middle;resizable=0;points=[];autosize=1;" vertex="1" parent="WIyWlLk6GJQsqaUBKTNV-1">
          <mxGeometry x="367" y="640" width="40" height="20" as="geometry" />
        </mxCell>
        <mxCell id="OThH-fJzGORxEDhMGL2U-58" value="" style="endArrow=classic;html=1;exitX=0.5;exitY=1;exitDx=0;exitDy=0;entryX=0.5;entryY=1;entryDx=0;entryDy=0;" edge="1" parent="WIyWlLk6GJQsqaUBKTNV-1" target="OThH-fJzGORxEDhMGL2U-11">
          <mxGeometry width="50" height="50" relative="1" as="geometry">
            <mxPoint x="435" y="620" as="sourcePoint" />
            <mxPoint x="20" y="1080" as="targetPoint" />
            <Array as="points">
              <mxPoint x="520" y="620" />
              <mxPoint x="520" y="1080" />
              <mxPoint x="20" y="1080" />
            </Array>
          </mxGeometry>
        </mxCell>
        <mxCell id="OThH-fJzGORxEDhMGL2U-59" value="No" style="text;html=1;align=center;verticalAlign=middle;resizable=0;points=[];autosize=1;" vertex="1" parent="WIyWlLk6GJQsqaUBKTNV-1">
          <mxGeometry x="435" y="595" width="30" height="20" as="geometry" />
        </mxCell>
        <mxCell id="OThH-fJzGORxEDhMGL2U-60" value="TaskFlowStateChangeEvent" style="text;html=1;align=center;verticalAlign=middle;resizable=0;points=[];autosize=1;rotation=90;" vertex="1" parent="WIyWlLk6GJQsqaUBKTNV-1">
          <mxGeometry x="90" y="600" width="170" height="20" as="geometry" />
        </mxCell>
        <mxCell id="OThH-fJzGORxEDhMGL2U-61" value="ProcessFlowStateChangeEvent" style="text;html=1;align=center;verticalAlign=middle;resizable=0;points=[];autosize=1;rotation=90;" vertex="1" parent="WIyWlLk6GJQsqaUBKTNV-1">
          <mxGeometry x="-195" y="610" width="180" height="20" as="geometry" />
        </mxCell>
        <mxCell id="OThH-fJzGORxEDhMGL2U-62" value="" style="endArrow=none;dashed=1;html=1;" edge="1" parent="WIyWlLk6GJQsqaUBKTNV-1">
          <mxGeometry width="50" height="50" relative="1" as="geometry">
            <mxPoint x="640" y="670" as="sourcePoint" />
            <mxPoint x="370" y="670" as="targetPoint" />
          </mxGeometry>
        </mxCell>
        <mxCell id="OThH-fJzGORxEDhMGL2U-64" value="" style="endArrow=classic;html=1;" edge="1" parent="WIyWlLk6GJQsqaUBKTNV-1">
          <mxGeometry width="50" height="50" relative="1" as="geometry">
            <mxPoint x="644" y="670" as="sourcePoint" />
            <mxPoint x="654" y="670" as="targetPoint" />
          </mxGeometry>
        </mxCell>
        <mxCell id="OThH-fJzGORxEDhMGL2U-66" value="SomethingEventSubscriber" style="rounded=1;whiteSpace=wrap;html=1;" vertex="1" parent="WIyWlLk6GJQsqaUBKTNV-1">
          <mxGeometry x="585" y="840" width="180" height="60" as="geometry" />
        </mxCell>
        <mxCell id="OThH-fJzGORxEDhMGL2U-67" value="" style="endArrow=none;dashed=1;html=1;entryX=0.5;entryY=0;entryDx=0;entryDy=0;" edge="1" parent="WIyWlLk6GJQsqaUBKTNV-1" target="OThH-fJzGORxEDhMGL2U-66">
          <mxGeometry width="50" height="50" relative="1" as="geometry">
            <mxPoint x="675" y="700" as="sourcePoint" />
            <mxPoint x="685" y="830" as="targetPoint" />
            <Array as="points">
              <mxPoint x="675" y="680" />
              <mxPoint x="675" y="690" />
            </Array>
          </mxGeometry>
        </mxCell>
        <mxCell id="OThH-fJzGORxEDhMGL2U-68" value="SomeThingEvent" style="text;html=1;align=center;verticalAlign=middle;resizable=0;points=[];autosize=1;" vertex="1" parent="WIyWlLk6GJQsqaUBKTNV-1">
          <mxGeometry x="540" y="648" width="110" height="20" as="geometry" />
        </mxCell>
        <mxCell id="OThH-fJzGORxEDhMGL2U-71" value="" style="endArrow=none;dashed=1;html=1;exitX=1;exitY=0.5;exitDx=0;exitDy=0;" edge="1" parent="WIyWlLk6GJQsqaUBKTNV-1">
          <mxGeometry width="50" height="50" relative="1" as="geometry">
            <mxPoint y="1025" as="sourcePoint" />
            <mxPoint y="1160" as="targetPoint" />
          </mxGeometry>
        </mxCell>
        <mxCell id="OThH-fJzGORxEDhMGL2U-75" value="" style="endArrow=classic;html=1;entryX=0.419;entryY=0.017;entryDx=0;entryDy=0;entryPerimeter=0;" edge="1" parent="WIyWlLk6GJQsqaUBKTNV-1">
          <mxGeometry width="50" height="50" relative="1" as="geometry">
            <mxPoint y="1150" as="sourcePoint" />
            <mxPoint x="0.01499999999987267" y="1160.02" as="targetPoint" />
          </mxGeometry>
        </mxCell>
        <mxCell id="OThH-fJzGORxEDhMGL2U-77" value="" style="endArrow=none;dashed=1;html=1;exitX=1;exitY=0.5;exitDx=0;exitDy=0;" edge="1" parent="WIyWlLk6GJQsqaUBKTNV-1" source="OThH-fJzGORxEDhMGL2U-20" target="OThH-fJzGORxEDhMGL2U-76">
          <mxGeometry width="50" height="50" relative="1" as="geometry">
            <mxPoint x="110" y="725" as="sourcePoint" />
            <mxPoint x="276" y="725" as="targetPoint" />
          </mxGeometry>
        </mxCell>
        <mxCell id="OThH-fJzGORxEDhMGL2U-79" value="EC" style="ellipse;whiteSpace=wrap;html=1;aspect=fixed;" vertex="1" parent="WIyWlLk6GJQsqaUBKTNV-1">
          <mxGeometry x="-134" y="485" width="30" height="30" as="geometry" />
        </mxCell>
        <mxCell id="OThH-fJzGORxEDhMGL2U-81" value="" style="endArrow=none;dashed=1;html=1;" edge="1" parent="WIyWlLk6GJQsqaUBKTNV-1" target="OThH-fJzGORxEDhMGL2U-79">
          <mxGeometry width="50" height="50" relative="1" as="geometry">
            <mxPoint x="-120" y="970" as="sourcePoint" />
            <mxPoint x="-120" y="360" as="targetPoint" />
          </mxGeometry>
        </mxCell>
        <mxCell id="OThH-fJzGORxEDhMGL2U-82" value="EC" style="ellipse;whiteSpace=wrap;html=1;aspect=fixed;" vertex="1" parent="WIyWlLk6GJQsqaUBKTNV-1">
          <mxGeometry x="510" y="178" width="30" height="30" as="geometry" />
        </mxCell>
        <mxCell id="OThH-fJzGORxEDhMGL2U-83" value="Event channel" style="text;html=1;align=center;verticalAlign=middle;resizable=0;points=[];autosize=1;" vertex="1" parent="WIyWlLk6GJQsqaUBKTNV-1">
          <mxGeometry x="373" y="183" width="90" height="20" as="geometry" />
        </mxCell>
        <mxCell id="OThH-fJzGORxEDhMGL2U-84" value="EC" style="ellipse;whiteSpace=wrap;html=1;aspect=fixed;" vertex="1" parent="WIyWlLk6GJQsqaUBKTNV-1">
          <mxGeometry x="660" y="654" width="30" height="30" as="geometry" />
        </mxCell>
        <mxCell id="OThH-fJzGORxEDhMGL2U-87" value="" style="endArrow=classic;html=1;entryX=0.5;entryY=0;entryDx=0;entryDy=0;" edge="1" parent="WIyWlLk6GJQsqaUBKTNV-1" target="OThH-fJzGORxEDhMGL2U-66">
          <mxGeometry width="50" height="50" relative="1" as="geometry">
            <mxPoint x="675" y="830" as="sourcePoint" />
            <mxPoint x="394.5" y="855" as="targetPoint" />
          </mxGeometry>
        </mxCell>
        <mxCell id="OThH-fJzGORxEDhMGL2U-88" value="EC" style="ellipse;whiteSpace=wrap;html=1;aspect=fixed;" vertex="1" parent="WIyWlLk6GJQsqaUBKTNV-1">
          <mxGeometry x="-15" y="1160" width="30" height="30" as="geometry" />
        </mxCell>
        <mxCell id="OThH-fJzGORxEDhMGL2U-89" value="&lt;span style=&quot;color: rgb(0, 0, 0); font-family: helvetica; font-size: 12px; font-style: normal; font-weight: 400; letter-spacing: normal; text-align: center; text-indent: 0px; text-transform: none; word-spacing: 0px; background-color: rgb(248, 249, 250); display: inline; float: none;&quot;&gt;ProcessFlowCompletedEvent&lt;/span&gt;" style="text;whiteSpace=wrap;html=1;" vertex="1" parent="WIyWlLk6GJQsqaUBKTNV-1">
          <mxGeometry x="10" y="1100" width="180" height="30" as="geometry" />
        </mxCell>
        <mxCell id="OThH-fJzGORxEDhMGL2U-92" value="TaskFlowProcessor" style="text;html=1;align=center;verticalAlign=middle;resizable=0;points=[];autosize=1;" vertex="1" parent="WIyWlLk6GJQsqaUBKTNV-1">
          <mxGeometry x="414" y="270" width="120" height="20" as="geometry" />
        </mxCell>
        <mxCell id="OThH-fJzGORxEDhMGL2U-94" value="Process Flow Processor Design" style="text;html=1;align=center;verticalAlign=middle;resizable=0;points=[];autosize=1;" vertex="1" parent="WIyWlLk6GJQsqaUBKTNV-1">
          <mxGeometry x="-265" y="223" width="190" height="20" as="geometry" />
        </mxCell>
        <mxCell id="OThH-fJzGORxEDhMGL2U-95" value="PcFlowCoreProcessor" style="text;html=1;align=center;verticalAlign=middle;resizable=0;points=[];autosize=1;" vertex="1" parent="WIyWlLk6GJQsqaUBKTNV-1">
          <mxGeometry y="270" width="130" height="20" as="geometry" />
        </mxCell>
        <mxCell id="OThH-fJzGORxEDhMGL2U-96" value="" style="strokeWidth=2;html=1;shape=mxgraph.flowchart.database;whiteSpace=wrap;" vertex="1" parent="WIyWlLk6GJQsqaUBKTNV-1">
          <mxGeometry x="510" y="223" width="30" height="20" as="geometry" />
        </mxCell>
        <mxCell id="OThH-fJzGORxEDhMGL2U-97" value="Database" style="text;html=1;align=center;verticalAlign=middle;resizable=0;points=[];autosize=1;" vertex="1" parent="WIyWlLk6GJQsqaUBKTNV-1">
          <mxGeometry x="390" y="219" width="70" height="20" as="geometry" />
        </mxCell>
      </root>
    </mxGraphModel>
  </diagram>
</mxfile>
